<svg width="240" height="240" viewBox="0 0 240 240" fill="none" xmlns="http://www.w3.org/2000/svg">
<rect width="240" height="240" rx="48" fill="black"/>
<path d="M203.219 88.9694C201.962 87.5326 201.064 85.9161 200.525 84.1201C200.031 82.2791 199.784 79.8769 199.784 76.9134V35.0879H210.695V75.7684C210.695 79.1809 211.077 81.8526 211.84 83.7833C212.604 85.6692 213.614 87.2632 214.871 88.5653V88.9694H203.219Z" fill="#AE7AF6"/>
<path d="M182.067 88.9694C180.809 87.5326 179.911 85.9161 179.372 84.1201C178.879 82.2791 178.632 79.8769 178.632 76.9134V35.0879H189.543V75.7684C189.543 79.1809 189.924 81.8526 190.688 83.7833C191.451 85.6692 192.461 87.2632 193.718 88.5653V88.9694H182.067Z" fill="#AE7AF6"/>
<path d="M157.85 88.9694V48.5583H168.761V88.9694H157.85ZM163.306 43.911C161.375 43.911 159.916 43.4171 158.928 42.4293C157.94 41.3965 157.446 40.0719 157.446 38.4555C157.446 36.8391 157.94 35.5369 158.928 34.5491C159.916 33.5164 161.375 33 163.306 33C165.237 33 166.696 33.5164 167.684 34.5491C168.672 35.5369 169.165 36.8391 169.165 38.4555C169.165 40.0719 168.672 41.3965 167.684 42.4293C166.696 43.4171 165.237 43.911 163.306 43.911Z" fill="#AE7AF6"/>
<path d="M136.863 88.9694C135.83 87.7571 134.999 86.2978 134.371 84.5916C133.787 82.8853 133.495 80.3259 133.495 76.9134V56.2364H127.972V48.5583H133.63V38.4555H144.339V48.5583H150.872V56.2364H144.339V75.7685C144.339 79.3157 144.743 82.0322 145.551 83.918C146.36 85.8039 147.325 87.353 148.447 88.5653V88.9694H136.863Z" fill="#AE7AF6"/>
<path d="M103.281 89.9797C99.1946 89.9797 95.7372 89.4409 92.9084 88.3633C90.1245 87.2407 87.857 85.7815 86.1059 83.9854C84.3996 82.1894 83.1199 80.2362 82.2668 78.1258C81.4586 75.9705 80.9871 73.8602 80.8524 71.7947H91.3593C91.4491 73.4112 91.943 74.9603 92.8411 76.442C93.7391 77.9237 95.0861 79.1361 96.8822 80.079C98.6782 81.0219 100.923 81.4934 103.617 81.4934C106.536 81.4934 108.691 80.9097 110.083 79.7422C111.52 78.5299 112.238 76.9584 112.238 75.0276C112.238 73.1867 111.61 71.6825 110.353 70.515C109.14 69.3476 107.524 68.4271 105.503 67.7536L97.8925 65.1942C95.4678 64.386 93.1329 63.3982 90.8879 62.2307C88.6877 61.0184 86.8692 59.4469 85.4323 57.5161C83.9955 55.5405 83.2771 53.026 83.2771 49.9727C83.2771 46.8296 84.0629 44.1804 85.6344 42.0252C87.2508 39.8699 89.451 38.231 92.2349 37.1085C95.0637 35.9859 98.2966 35.4247 101.934 35.4247C106.603 35.4247 110.285 36.2105 112.979 37.782C115.673 39.3535 117.627 41.3517 118.839 43.7763C120.096 46.1561 120.859 48.6481 121.129 51.2524H110.622C110.532 49.9951 110.173 48.8053 109.544 47.6827C108.961 46.5153 108.018 45.5724 106.716 44.854C105.413 44.1355 103.662 43.7763 101.462 43.7763C98.9925 43.7763 97.1516 44.2927 95.9392 45.3254C94.7718 46.3581 94.1881 47.6603 94.1881 49.2318C94.1881 50.9381 94.7943 52.3076 96.0066 53.3403C97.2638 54.373 98.9252 55.2486 100.991 55.967L108.601 58.5264C111.071 59.3346 113.406 60.3449 115.606 61.5572C117.806 62.7696 119.602 64.386 120.994 66.4066C122.431 68.3822 123.149 70.9865 123.149 74.2194C123.149 79.1136 121.398 82.9751 117.896 85.8039C114.439 88.5878 109.567 89.9797 103.281 89.9797Z" fill="#AE7AF6"/>
<path d="M200.037 148.239C199.004 147.027 198.173 145.568 197.545 143.861C196.961 142.155 196.669 139.596 196.669 136.183V115.506H191.146V107.828H196.804V97.7252H207.513V107.828H214.046V115.506H207.513V135.038C207.513 138.585 207.917 141.302 208.725 143.188C209.533 145.074 210.499 146.623 211.621 147.835V148.239H200.037Z" fill="white"/>
<path d="M148.332 148.239V107.828H158.434V113.89H160.051C160.859 111.869 162.094 110.185 163.755 108.838C165.461 107.491 167.953 106.818 171.231 106.818C175.721 106.818 179.089 108.232 181.334 111.061C183.579 113.89 184.702 117.729 184.702 122.578V148.239H173.791V124.397C173.791 121.613 173.297 119.48 172.309 117.998C171.321 116.472 169.705 115.708 167.46 115.708C164.855 115.708 162.835 116.741 161.398 118.806C159.961 120.827 159.243 123.364 159.243 126.417V148.239H148.332Z" fill="white"/>
<path d="M115.583 149.047C111.811 149.047 108.713 148.149 106.288 146.353C103.864 144.512 102.068 141.998 100.9 138.81C99.7326 135.622 99.1489 132.007 99.1489 127.966C99.1489 123.79 99.7326 120.131 100.9 116.988C102.112 113.845 103.931 111.398 106.356 109.646C108.78 107.895 111.834 107.02 115.515 107.02C118.344 107.02 120.657 107.581 122.453 108.704C124.294 109.781 125.686 111.24 126.629 113.081H128.245V107.828H138.348V148.239H128.245V142.986H126.629C125.686 144.692 124.316 146.129 122.52 147.296C120.724 148.464 118.412 149.047 115.583 149.047ZM118.412 141.369C121.151 141.369 123.328 140.179 124.945 137.8C126.606 135.375 127.437 132.12 127.437 128.034C127.437 123.903 126.606 120.647 124.945 118.268C123.328 115.888 121.151 114.698 118.412 114.698C115.942 114.698 113.989 115.82 112.552 118.065C111.16 120.266 110.464 123.588 110.464 128.034C110.464 132.479 111.16 135.824 112.552 138.069C113.989 140.269 115.942 141.369 118.412 141.369Z" fill="white"/>
<path d="M31.6108 148.239L24 96.1088V95.7047H35.0457L41.3094 139.349H42.9259L50.4693 95.7047H69.1931L76.8039 139.349H78.4203L84.6167 95.7047H94.9889V96.1088L87.3781 148.239H67.8461L60.3027 104.595H58.6862L51.1428 148.239H31.6108Z" fill="white"/>
<path d="M190.396 191.344V179.962C192.821 179.423 194.998 178.727 196.929 177.874C198.905 177.021 200.454 175.921 201.576 174.574C202.699 173.227 203.26 171.52 203.26 169.455C203.26 167.479 202.654 165.796 201.442 164.404C200.229 162.967 198.388 162.248 195.919 162.248C194.168 162.248 192.731 162.608 191.608 163.326C190.486 164.044 189.633 165.01 189.049 166.222C188.51 167.39 188.196 168.714 188.106 170.196H178.003C178.093 167.232 178.789 164.538 180.091 162.114C181.438 159.689 183.436 157.758 186.085 156.321C188.735 154.884 192.102 154.166 196.188 154.166C201.442 154.166 205.662 155.536 208.85 158.275C212.083 160.969 213.7 164.695 213.7 169.455C213.7 173.676 212.443 177.111 209.928 179.76C207.458 182.409 204.181 184.43 200.095 185.821V191.344H190.396ZM195.245 207.913C193.315 207.913 191.81 207.352 190.733 206.229C189.7 205.107 189.184 203.647 189.184 201.851C189.184 200.01 189.7 198.551 190.733 197.473C191.81 196.351 193.315 195.79 195.245 195.79C197.221 195.79 198.725 196.351 199.758 197.473C200.791 198.551 201.307 200.01 201.307 201.851C201.307 203.647 200.791 205.107 199.758 206.229C198.725 207.352 197.221 207.913 195.245 207.913Z" fill="#AE7AF6"/>
<path d="M160.383 207.509C159.351 206.296 158.52 204.837 157.891 203.131C157.308 201.425 157.016 198.865 157.016 195.453V174.776H151.493V167.098H157.15V156.995H167.859V167.098H174.393V174.776H167.859V194.308C167.859 197.855 168.264 200.571 169.072 202.457C169.88 204.343 170.845 205.892 171.968 207.105V207.509H160.383Z" fill="white"/>
<path d="M133.044 207.509V154.974H144.359V207.509H133.044Z" fill="white"/>
</svg>
